<?xml version="1.0"?>
<svg xmlns="http://www.w3.org/2000/svg" xmlnsXlink="http://www.w3.org/1999/xlink" xmlnsSvgjs="http://svgjs.com/svgjs" version="1.1" width="512" height="512" x="0" y="0" viewBox="0 0 24 24" style="enable-background:new 0 0 512 512" xml:space="preserve"><g><path xmlns="http://www.w3.org/2000/svg" d="M20,0H5c-1.654,0-3,1.346-3,3V21c0,1.654,1.346,3,3,3H22V2c0-1.103-.897-2-2-2Zm0,18H8V2h4V11l2.5-2.5,2.5,2.5V2h3V18ZM5,2h1V18h-1c-.351,0-.687,.061-1,.172V3c0-.551,.449-1,1-1Zm0,20c-.551,0-1-.449-1-1s.449-1,1-1h15v2H5Z" fill="#cccccc" data-original="#000000"/></g></svg>
